<svg xmlns="http://www.w3.org/2000/svg" style="width:120px;" viewBox="0 0 40 40" x="0px" y="0px" xmlns:xml="http://www.w3.org/XML/1998/namespace" xml:space="preserve" xmlns:xlink="http://www.w3.org/1999/xlink" version="1.1">
            <g id="Layer_1">
            <g>
            <circle style="fill:#DFF0FE;" cx="24" cy="13" r="4.5"/>
            <path style="fill:#4788C7;" d="M 24 9 c 2.206 0 4 1.794 4 4 s -1.794 4 -4 4 s -4 -1.794 -4 -4 S 21.794 9 24 9 M 24 8 c -2.761 0 -5 2.239 -5 5 s 2.239 5 5 5 s 5 -2.239 5 -5 S 26.761 8 24 8 L 24 8 Z"/>
	                    </g>
            <line style="fill:none;stroke:#4788C7;stroke-width:2;stroke-miterlimit:10;" x1="4.148" y1="6.615" x2="11.935" y2="9.403"/>
            <g>
            <g>
            <path style="fill:#B6DCFE;" d="M 30.189 34.5 l -3.194 -4.795 L 26.545 34.5 h -10.97 l 1.423 -10.187 l -5.92 -5.821 C 10.71 18.097 10.5 17.562 10.5 17 V 8.5 c 0 -1.103 0.897 -2 2 -2 s 2 0.897 2 2 v 7.734 l 3.861 3.217 l 7.509 2.031 c 0.583 0.146 1.069 0.515 1.376 1.04 L 35.048 34.5 H 30.189 Z"/>
		                    </g>
            <g>
            <path style="fill:#4788C7;" d="M 12.5 7 C 13.327 7 14 7.673 14 8.5 V 9 v 3.5 V 16 v 0.468 l 0.36 0.3 l 3.597 2.998 l 0.168 0.14 l 0.211 0.057 l 7.422 2.007 c 0.443 0.111 0.818 0.396 1.082 0.846 L 34.125 34 h -3.668 l -2.264 -3.398 l -1.564 -2.348 l -0.264 2.809 L 26.09 34 h -9.94 l 1.309 -9.368 l 0.07 -0.499 l -0.359 -0.353 l -5.71 -5.613 C 11.163 17.849 11 17.435 11 17 v -4.5 V 9 V 8.5 C 11 7.673 11.673 7 12.5 7 M 12.5 6 C 11.119 6 10 7.119 10 8.5 V 9 v 3.5 V 17 c 0 0.686 0.26 1.347 0.727 1.849 l 5.741 5.645 L 15 35 h 12 l 0.361 -3.844 L 29.922 35 h 6.049 l -8.293 -12.729 C 27.319 21.658 26.733 21.183 26 21 l -7.403 -2.002 L 15 16 v -3.5 V 9 V 8.5 C 15 7.119 13.881 6 12.5 6 L 12.5 6 Z"/>
		                    </g>
	                    </g>
            <g>
            <rect style="fill:#98CCFD;" x="1.5" y="34.5" width="37" height="4"/>
            <g>
            <path style="fill:#4788C7;" d="M 38 35 v 3 H 2 v -3 H 38 M 39 34 H 1 v 5 h 38 V 34 L 39 34 Z"/>
		                    </g>
	                    </g>
            <g>
            <polygon style="fill:#98CCFD;" points="1.549,9.004 4.107,1.631 7.378,2.729 3.875,12.833"/>
            <path style="fill:#4788C7;" d="M 4.418 2.263 l 2.323 0.78 l -2.989 8.622 L 2.099 8.946 L 4.418 2.263 M 3.797 1 L 1 9.063 L 4 14 L 8.016 2.416 L 3.797 1 L 3.797 1 Z"/>
	                    </g>
                    </g>
            <g id="Layer_2">
                    </g>
                </svg>